<?xml version="1.0" encoding="utf-8"?>
<!-- Generator: Adobe Illustrator 27.1.0, SVG Export Plug-In . SVG Version: 6.00 Build 0)  -->
<svg version="1.1" id="Layer_1" xmlns="http://www.w3.org/2000/svg" xmlns:xlink="http://www.w3.org/1999/xlink" x="0px" y="0px"
	 viewBox="0 0 1050 550" style="enable-background:new 0 0 1050 550;" xml:space="preserve">
<style type="text/css">
	.st0{fill:#101010;}
</style>
<g>
	<path class="st0" d="M131.5,427.9c-1,8.6-1.3,17.7-0.8,27.3c0.1,1.1,0.1,2.1,0.2,3.2c2.2,13.5,4.5,24.8,6.5,33.5
		c2.1,9.2,3.9,17.5,7.2,28.2c3.2,10.3,6.4,18.9,8.9,25.1c-10.7-10.3-18.2-22.9-27-34.4c-7.3-9.5-7.8-20.1-12-29.9
		c-2.7-6.2-4.7-13.9-4.3-22c0.5-11.4-2-22.9-3.3-34.3c-0.9-15-0.9-30,0-45c0.1-17.8,2.5-35.4,9-51.8c4.3-10.8,4.9-22.4,9.1-33.1
		c4.1-10.3,8.5-20.4,13.7-30.2c0.5-1,0.5-0.8,3.7-5.9c9.4-14.9,16-25.8,16.9-27.1c5.3-8.5,17.6-23.1,47.3-50c3-3.3,5.7-7.3,11.1-6.7
		c5.7-2.2,10.6-5.4,15.5-9.2c6.3-4.9,14.8-4.7,22.1-7.7c8.7-3.6,18.1-5.6,27.6-5.5c7.6-0.7,15.2-1,22.7,0.1
		c40.6,2.7,74.4,17.4,95.6,54c6.3,10.8,10.5,22.7,11.6,35.4c1,9.2,1,18.4,0,27.6c-5.9,43.9-27.6,78.9-60.3,108
		c-37.1,33-81.1,51.3-129.1,60.8c-22.9,4.6-46,3.4-69,0.2c-1-0.1-1.8-1.8-2.7-2.7c-0.7-17.6-1.4-35.1,0.4-52.7
		c8.7-4.1,16.5,2.4,24.9,2.2c3.8-0.1,7.7,1.1,11.7,0.5c8.6-1.2,17.1-0.9,25.7-0.1c8.6-2.9,17.6-0.7,26.4-2.8
		c6.4-1.5,14.8-1.1,19.6-3.4c17.9-8.8,37.3-15.5,52.2-29.6c20.2-19.1,38.6-39.4,48.6-66c2.8-7.4,1.1-15.6,5.2-22.6
		c1.1-8.1,1-16.2,0.1-24.3c-1.4-8.2-2.6-16.5-5.7-24.3c-7.3-17.9-21-27.4-39.7-29.9c-2.7-0.4-4.9-1.6-7.5-1.8
		c-8.1-0.9-16.1-0.9-24.2,0c-26.6,5.8-50.6,16.6-70.8,35.4c-12,11.2-23.7,22.2-31.9,37c-2.7,4.9-6.8,9.8-10.4,14.7
		c-6.8,9.2-12.2,19.1-16.7,29.6c-2.7,6.2-9.1,11.7-9.6,17.5c-0.6,8-6.9,12.3-8.2,18.7c-1.9,8.9-3.1,17.9-5.7,26.7
		c-3.7,12.4-3.2,25.1-3.6,37.7C131.1,408.3,132.9,418.1,131.5,427.9z"/>
	<path class="st0" d="M148.9,5.4c5.2-0.3,10,1.7,14.3,3.7c10.7,5.1,22.6,7.5,32.9,13C209,29,217.5,40,220.9,54.4
		c1,4,2.2,7.9,3.2,11.8c1,7,0.9,14,0,21.1c-1.7,7.9-3,15.9-6.4,23.4c-6,13.2-25.2,17.6-35.6,5.2c-5.4-6.3-10-13.3-11.8-21.2
		c-3.7-17.1-26.8-27.6-44.3-14.2c-7.7,5.9-14.1,13-20.1,20.4c-11.4,13.9-19.8,29.3-27,45.9c-5.5,12.7-9.7,25.5-13.9,38.6
		c-4.6,14.4-4.9,26.4-5.6,33.7c-1.4,13.8-1.3,23.9-1.2,27.2c0.1,5.5,0.4,10.2,0.7,13.8c-0.3,0.8-0.4,1.6-0.4,2.4
		c0.2,4.4,0.4,7.8,0.7,9.2c1.4,6,1.1,9.5,2,14.4c2.7,15.6,7.3,40.6,26.1,57.2c1.7,1.5,2.9,3.5,2.1,5.6c-2.7,7.4-0.7,15.1-1.7,22.6
		c-1.6,8.1,0.4,16.3-1.1,24.3c0,4.8,0,9.6,0,14.3c-0.8,0.3-1.6,0.6-2.3,0.9C32.7,363.8,2.7,306.5,4.8,234.3
		c-1.5-8.6-0.9-17.3-0.3-25.9C7.7,142.9,30.8,85.6,76.4,38.5C90.1,24.4,105.3,11,125.8,6.6c2.3-0.5,4.7-0.3,6.9-1.1
		C138.1,4.4,143.5,4.5,148.9,5.4z"/>
	<path class="st0" d="M675.3,336.4c-11.2,11.8-21.5,21.7-33,30.4c-10.1,7.6-21.1,13-33.3,15.9c-13.4,3.1-28.1-8.1-29.6-21.7
		c-1.7-15.1,2.1-29.2,6.4-43.3c7-23,15.5-45.5,25.4-67.4c2.1-4.7,4.8-8.9,8.3-12.6c6.3-6.8,21.2-9.3,29.4-5
		c4.8,2.5,6.4,5.4,3.5,10.8c-15.6,29.1-26.5,60.1-35.8,91.7c-1.2,4.1-1,8.5-0.2,12.6c1.5,6.7,9.6,9.4,18.6,5.8
		c16.9-6.8,31.3-17.9,41.5-32.5c5.8-8.3,6.6-20,9.9-30c5.3-16.1,11.7-31.8,19.3-47c8.3-16.5,17.2-16.9,35.3-12.6
		c4.6,1.1,7.5,3.6,5,10c-6,15.3-14.7,29.3-21.3,44.3c-7.1,16.4-11.4,33.6-16,50.7c-1.4,5.2,0.4,10.5,4.8,13.4
		c4.6,3.1,9.7,1.4,14.1-1.6c16.8-11.1,30.9-25.3,44.2-40.2c17.1-19.2,31.8-40,40.8-64.4c2.2-6,5.3-11.5,9.8-16.3
		c4.6-4.9,10.1-5,14.9-2.3c5,2.8,3,8.7,2.1,13.1c-1,5.1-3.2,10-6.2,14.4c-24.9,36.5-50.2,72.9-82.5,103.5
		c-11.4,10.8-24,19.8-39.7,24.4c-21.6,6.3-34.9-12.5-35.7-27.2C675.1,348.2,675.3,343.2,675.3,336.4z"/>
	<path class="st0" d="M951.9,320.7c-14.6,17.3-28.6,35.1-47.8,47.7c-11.3,7.4-23,12.5-37.2,13.5c-16,1-33.1-15.3-33.5-30.7
		c-1-6.4-1-12.9,0-19.3c2.2-16.1,7.5-31.2,13.3-46.2c5.9-15.3,13.1-29.8,21.6-43.8c9.6-15.8,18.3-16.3,35.9-11.9
		c5.6,1.4,8.1,5,4.8,10.7c-7.9,13.6-14.7,27.8-20.7,42.2c-7.7,18.4-15,37.2-16.2,57.4c-0.8,13.2,8.5,18.9,20.4,13.5
		c8.8-4,16.3-10.1,23.1-16.8c22.4-22.1,41-46.8,52.6-76.4c2.2-5.6,4.1-11.3,6.1-17c2.8-7.7,9.4-12.9,17.2-12.4
		c5.2,0.3,10.2-0.3,15.6,1.1c7.8,2.1,8.3,7,6.6,12.6c-4.8,15.8-10.1,31.5-15.5,47.1c-4.1,11.9-6,24.1-7.9,36.5
		c-1.3,8.8,2.3,16.6,6.6,23.8c5.4,9,14,10,28.5,4c4.6-1.9,8.9-4.8,13.3-7.2c2.2-1.2,4-3.7,7.3-2.1c-0.3,4.4-3.4,7-6,9.9
		c-9.8,10.9-21.4,19.2-35.7,23.1c-25.4,6.9-41.5-8.3-47.4-29.1c-1.4-5-1.5-10.4-2.1-15.6c-1.1-3.9-0.2-7.8-0.5-11.8
		C954.2,321.9,954.5,320,951.9,320.7z"/>
	<path class="st0" d="M485.6,275.5c7-6.1,13.4-11.5,19.5-17c15.1-13.7,32-24.4,51.1-31.6c8.6-3.3,17.3-2.5,25.8-1.5
		c8.5,1,11.4,9.5,7,17.9c-2.8,5.4-7.6,8.8-12.2,12.4c-5.4,4.3-10.2,0.9-15.6,0c-9.4-1.6-19-1.5-27.9,3.6
		c-27.8,15.9-47.4,39.1-61.6,67.3c-7.6,15.1-13.2,30.9-15.9,47.7c-0.9,5.1-3,8.4-8.9,7.2c-3.6-0.7-7.4-0.9-11-1.9
		c-12.2-3.6-16.3-11.5-12.4-23.9c11-35,22-69.9,33-104.9c2.6-8.4,5.1-16.7,7.7-25.1c3.4-11,7.8-9.2,20-8.7
		c8.6,0.4,11.6,4.8,11.9,13.4C496.4,245.8,489.7,259.4,485.6,275.5z"/>
	<path class="st0" d="M651.1,196.1c-5.1-0.1-11.4-1.5-14.6-8c-3.3-6.5-1.6-12.8,3.1-18.4c7.5-8.8,16-14.8,28.5-12.2
		c12,2.5,16.4,10.9,11,21.8C674.6,188.3,662.5,196,651.1,196.1z"/>
</g>
</svg>
