<?xml version="1.0" encoding="utf-8"?>
<!-- Generator: Adobe Illustrator 27.1.0, SVG Export Plug-In . SVG Version: 6.00 Build 0)  -->
<svg version="1.1" id="Layer_1" xmlns="http://www.w3.org/2000/svg" xmlns:xlink="http://www.w3.org/1999/xlink" x="0px" y="0px"
	 viewBox="0 0 418 550" style="enable-background:new 0 0 418 550;" xml:space="preserve">
<style type="text/css">
	.st0{fill:#101010;}
</style>
<g>
	<path class="st0" d="M131.7,427.9c-1,8.6-1.3,17.7-0.8,27.3c0.1,1.1,0.1,2.1,0.2,3.2c2.2,13.5,4.5,24.8,6.5,33.5
		c2.1,9.2,3.9,17.5,7.2,28.2c3.2,10.3,6.4,18.9,8.9,25.1c-10.7-10.3-18.2-22.9-27-34.4c-7.3-9.5-7.8-20.1-12-29.9
		c-2.7-6.2-4.7-13.9-4.3-22c0.5-11.4-2-22.9-3.3-34.3c-0.9-15-0.9-30,0-45c0.1-17.8,2.5-35.4,9-51.8c4.3-10.8,4.9-22.4,9.1-33.1
		c4.1-10.3,8.5-20.4,13.7-30.2c0.5-1,0.5-0.8,3.7-5.9c9.4-14.9,16-25.8,16.9-27.1c5.3-8.5,17.6-23.1,47.3-50c3-3.3,5.7-7.3,11.1-6.7
		c5.7-2.2,10.6-5.4,15.5-9.2c6.3-4.9,14.8-4.7,22.1-7.7c8.7-3.6,18.1-5.6,27.6-5.5c7.6-0.7,15.2-1,22.7,0.1
		c40.6,2.7,74.4,17.4,95.6,54c6.3,10.8,10.5,22.7,11.6,35.4c1,9.2,1,18.4,0,27.6c-5.9,43.9-27.6,78.9-60.3,108
		c-37.1,33-81.1,51.3-129.1,60.8c-22.9,4.6-46,3.4-69,0.2c-1-0.1-1.8-1.8-2.7-2.7c-0.7-17.6-1.4-35.1,0.4-52.7
		c8.7-4.1,16.5,2.4,24.9,2.2c3.8-0.1,7.7,1.1,11.7,0.5c8.6-1.2,17.1-0.9,25.7-0.1c8.6-2.9,17.6-0.7,26.4-2.8
		c6.4-1.5,14.8-1.1,19.6-3.4c17.9-8.8,37.3-15.5,52.2-29.6c20.2-19.1,38.6-39.4,48.6-66c2.8-7.4,1.1-15.6,5.2-22.6
		c1.1-8.1,1-16.2,0.1-24.3c-1.4-8.2-2.6-16.5-5.7-24.3c-7.3-17.9-21-27.4-39.7-29.9c-2.7-0.4-4.9-1.6-7.5-1.8
		c-8.1-0.9-16.1-0.9-24.2,0c-26.6,5.8-50.6,16.6-70.8,35.4c-12,11.2-23.7,22.2-31.9,37c-2.7,4.9-6.8,9.8-10.4,14.7
		c-6.8,9.2-12.2,19.1-16.7,29.6c-2.7,6.2-9.1,11.7-9.6,17.5c-0.6,8-6.9,12.3-8.2,18.7c-1.9,8.9-3.1,17.9-5.7,26.7
		c-3.7,12.4-3.2,25.1-3.6,37.7C131.3,408.3,133.1,418.1,131.7,427.9z"/>
	<path class="st0" d="M149.1,5.4c5.2-0.3,10,1.7,14.3,3.7c10.7,5.1,22.6,7.5,32.9,13c12.8,6.9,21.3,17.9,24.8,32.3
		c1,4,2.2,7.9,3.2,11.8c1,7,0.9,14,0,21.1c-1.7,7.9-3,15.9-6.4,23.4c-6,13.2-25.2,17.6-35.6,5.2c-5.4-6.3-10-13.3-11.8-21.2
		c-3.7-17.1-26.8-27.6-44.3-14.2c-7.7,5.9-14.1,13-20.1,20.4c-11.4,13.9-19.8,29.3-27,45.9c-5.5,12.7-9.7,25.5-13.9,38.6
		c-4.6,14.4-4.9,26.4-5.6,33.7c-1.4,13.8-1.3,23.9-1.2,27.2c0.1,5.5,0.4,10.2,0.7,13.8c-0.3,0.8-0.4,1.6-0.4,2.4
		c0.2,4.4,0.4,7.8,0.7,9.2c1.4,6,1.1,9.5,2,14.4c2.7,15.6,7.3,40.6,26.1,57.2c1.7,1.5,2.9,3.5,2.1,5.6c-2.7,7.4-0.7,15.1-1.7,22.6
		c-1.6,8.1,0.4,16.3-1.1,24.3c0,4.8,0,9.6,0,14.3c-0.8,0.3-1.6,0.6-2.3,0.9C32.9,363.8,2.9,306.5,5,234.3
		c-1.5-8.6-0.9-17.3-0.3-25.9C7.9,142.9,31,85.6,76.6,38.5C90.3,24.4,105.5,11,126,6.6c2.3-0.5,4.7-0.3,6.9-1.1
		C138.3,4.4,143.7,4.5,149.1,5.4z"/>
</g>
</svg>
